<?xml version="1.0" encoding="UTF-8"?>
<svg width="19px" height="19px" viewBox="0 0 19 19" version="1.1" xmlns="http://www.w3.org/2000/svg" xmlns:xlink="http://www.w3.org/1999/xlink">
    <!-- Generator: Sketch 43.2 (39069) - http://www.bohemiancoding.com/sketch -->
    <title>Path</title>
    <desc>Created with Sketch.</desc>
    <defs></defs>
    <g id="NSSF---Homepage" stroke="none" stroke-width="1" fill="none" fill-rule="evenodd">
        <g id="NSSF---UI---HP---Range-Locator" transform="translate(-1381.000000, -135.000000)" fill="#FFFFFF">
            <g id="Group-10" transform="translate(0.000000, 109.000000)">
                <path d="M1401.86364,36.6363636 L1391.63636,36.6363636 L1391.63636,46.8636364 C1391.63636,47.5454545 1391.18182,48 1390.5,48 C1389.81818,48 1389.36364,47.5454545 1389.36364,46.8636364 L1389.36364,36.6363636 L1379.13636,36.6363636 C1378.45455,36.6363636 1378,36.1818182 1378,35.5 C1378,34.8181818 1378.45455,34.3636364 1379.13636,34.3636364 L1389.36364,34.3636364 L1389.36364,24.1363636 C1389.36364,23.4545455 1389.81818,23 1390.5,23 C1391.18182,23 1391.63636,23.4545455 1391.63636,24.1363636 L1391.63636,34.3636364 L1401.86364,34.3636364 C1402.54545,34.3636364 1403,34.8181818 1403,35.5 C1403,36.1818182 1402.54545,36.6363636 1401.86364,36.6363636 L1401.86364,36.6363636 Z" id="Path" transform="translate(1390.500000, 35.500000) rotate(-45.000000) translate(-1390.500000, -35.500000) "></path>
            </g>
        </g>
    </g>
</svg>