<?xml version="1.0" encoding="UTF-8"?>
<svg width="17px" height="16px" viewBox="0 0 17 16" version="1.1" xmlns="http://www.w3.org/2000/svg" xmlns:xlink="http://www.w3.org/1999/xlink">
    <!-- Generator: Sketch 43.2 (39069) - http://www.bohemiancoding.com/sketch -->
    <title>IG</title>
    <desc>Created with Sketch.</desc>
    <defs></defs>
    <g id="NSSF---Homepage" stroke="none" stroke-width="1" fill="none" fill-rule="evenodd">
        <g id="NSSF---UI---HP---Desktop" transform="translate(-1279.000000, -4519.000000)" fill="#FFFFFF">
            <g id="Footer" transform="translate(0.000000, 4487.000000)">
                <g id="Social" transform="translate(1203.000000, 32.000000)">
                    <path d="M87.2671829,8 C87.2671829,6.35590698 85.9343456,5.02325581 84.2904387,5.02325581 C82.6461596,5.02325581 81.3136945,6.35590698 81.3136945,8 C81.3136945,9.64409302 82.6461596,10.9767442 84.2904387,10.9767442 C85.9343456,10.9767442 87.2671829,9.64409302 87.2671829,8 L87.2671829,8 Z M91.0124852,3.08837209 C91.0124852,3.33413953 90.811927,3.53488372 90.5661596,3.53488372 L89.2264387,3.53488372 C88.9812294,3.53488372 88.779927,3.33413953 88.779927,3.08837209 L88.779927,1.74883721 C88.779927,1.50306977 88.9812294,1.30232558 89.2264387,1.30232558 L90.5661596,1.30232558 C90.811927,1.30232558 91.0124852,1.50306977 91.0124852,1.74883721 L91.0124852,3.08837209 Z M89.7905317,0 L78.7903456,0 C77.4089503,0 76.2904387,1.11962791 76.2904387,2.50009302 L76.2904387,5.20930233 L80.3402991,5.20930233 C81.2163922,3.97153488 82.6586247,3.1627907 84.2904387,3.1627907 C85.9220666,3.1627907 87.3641131,3.97153488 88.2400201,5.20930233 L92.2904387,5.20930233 L92.2904387,2.50009302 C92.2904387,1.11962791 91.1704387,0 89.7905317,0 L89.7905317,0 Z M89.127648,8 C89.127648,10.671814 86.9615084,12.8372093 84.2904387,12.8372093 C81.6186247,12.8372093 79.4532294,10.671814 79.4532294,8 C79.4532294,7.68167442 79.4848573,7.3707907 79.5432759,7.06976744 L76.2904387,7.06976744 L76.2904387,13.499907 C76.2904387,14.8807442 77.4089503,16 78.7903456,16 L89.7905317,16 C91.1704387,16 92.2904387,14.8807442 92.2904387,13.499907 L92.2904387,7.06976744 L89.0372294,7.06976744 C89.0960201,7.3707907 89.127648,7.68167442 89.127648,8 L89.127648,8 Z" id="IG"></path>
                </g>
            </g>
        </g>
    </g>
</svg>