<?xml version="1.0" encoding="UTF-8"?>
<svg width="17px" height="16px" viewBox="0 0 17 16" version="1.1" xmlns="http://www.w3.org/2000/svg" xmlns:xlink="http://www.w3.org/1999/xlink">
    <!-- Generator: Sketch 43.2 (39069) - http://www.bohemiancoding.com/sketch -->
    <title>IN</title>
    <desc>Created with Sketch.</desc>
    <defs></defs>
    <g id="NSSF---Homepage" stroke="none" stroke-width="1" fill="none" fill-rule="evenodd">
        <g id="NSSF---UI---HP---Desktop" transform="translate(-1319.000000, -4519.000000)" fill="#FFFFFF">
            <g id="Footer" transform="translate(0.000000, 4487.000000)">
                <g id="Social" transform="translate(1203.000000, 32.000000)">
                    <g id="IN" transform="translate(116.145219, 0.000000)">
                        <path d="M0.0909662921,15.9529528 L3.55020225,15.9529528 L3.55020225,4.82468315 L0.0909662921,4.82468315 L0.0909662921,15.9529528 Z M3.66364045,1.72967191 C3.66364045,2.68517753 2.95820225,3.45911011 1.79739326,3.45911011 C0.705438202,3.45911011 0,2.68517753 0,1.72967191 C0,0.750975281 0.728269663,5.39325843e-05 1.84305618,5.39325843e-05 C2.95820225,5.39325843e-05 3.64116854,0.750975281 3.66364045,1.72967191 L3.66364045,1.72967191 Z" id="Fill-1"></path>
                        <path d="M5.62009888,8.37465169 C5.62009888,6.98660674 5.57479551,5.8261573 5.52949213,4.82462921 L8.53299775,4.82462921 L8.69281798,6.37213483 L8.76095281,6.37213483 C9.21596404,5.64368539 10.3311101,4.57402247 12.1973573,4.57402247 C14.4729528,4.57402247 16.1797393,6.09905618 16.1797393,9.37582022 L16.1797393,15.9528989 L12.7205034,15.9528989 L12.7205034,9.78570787 C12.7205034,8.35182022 12.2198292,7.37366292 10.9680539,7.37366292 C10.0123685,7.37366292 9.4439191,8.0334382 9.19349213,8.6705618 C9.10216629,8.89797753 9.07933483,9.21689888 9.07933483,9.53546067 L9.07933483,15.9528989 L5.62009888,15.9528989 L5.62009888,8.37465169 Z" id="Fill-3"></path>
                    </g>
                </g>
            </g>
        </g>
    </g>
</svg>