<?xml version="1.0" encoding="UTF-8"?>
<svg width="21px" height="16px" viewBox="0 0 21 16" version="1.1" xmlns="http://www.w3.org/2000/svg" xmlns:xlink="http://www.w3.org/1999/xlink">
    <!-- Generator: Sketch 43.2 (39069) - http://www.bohemiancoding.com/sketch -->
    <title>Fill 1</title>
    <desc>Created with Sketch.</desc>
    <defs></defs>
    <g id="NSSF---Homepage" stroke="none" stroke-width="1" fill="none" fill-rule="evenodd">
        <g id="NSSF---UI---HP---Desktop" transform="translate(-1235.000000, -4519.000000)" fill="#FFFFFF">
            <g id="Footer" transform="translate(0.000000, 4487.000000)">
                <g id="Social" transform="translate(1203.000000, 32.000000)">
                    <path d="M52.435658,1.89423111 C51.7108364,2.21519487 50.9326642,2.43261267 50.1157699,2.53013517 C50.9498741,2.03047578 51.5900806,1.23882256 51.8918267,0.295435804 C51.111073,0.758094009 50.2468516,1.0942598 49.326985,1.27582374 C48.5901164,0.490193969 47.5403154,0 46.3786504,0 C44.1482535,0 42.3397848,1.80846868 42.3397848,4.03943925 C42.3397848,4.3558137 42.3753518,4.66387007 42.4441912,4.95987953 C39.0876963,4.79122298 36.1106786,3.18324908 34.1192118,0.739736833 C33.771286,1.33634506 33.5719385,2.02990212 33.5719385,2.76992578 C33.5719385,4.17080779 34.2850001,5.4073357 35.368934,6.13158366 C34.7072151,6.11093184 34.0839316,5.9293679 33.5395266,5.62704815 C33.538953,5.64368434 33.538953,5.66060736 33.538953,5.67724356 C33.538953,7.63486429 34.9315169,9.26721882 36.7789946,9.63809114 C36.4402473,9.73045068 36.0834297,9.77978559 35.714852,9.77978559 C35.4549832,9.77978559 35.2019984,9.75454448 34.955037,9.70750421 C35.469038,11.3120361 36.9611322,12.4794378 38.7282972,12.5121365 C37.3457724,13.5954968 35.6044221,14.2414399 33.711912,14.2414399 C33.3860721,14.2414399 33.0645347,14.2222222 32.7487339,14.1843605 C34.5356903,15.3311104 36.6585256,16 38.9402652,16 C46.369185,16 50.4321443,9.8448962 50.4321443,4.50697358 C50.4321443,4.33229357 50.4281287,4.15818723 50.4203843,3.98436772 C51.209456,3.41586892 51.8941213,2.70424151 52.435658,1.89423111" id="Fill-1"></path>
                </g>
            </g>
        </g>
    </g>
</svg>