<?xml version="1.0" encoding="UTF-8"?>
<svg width="22px" height="16px" viewBox="0 0 22 16" version="1.1" xmlns="http://www.w3.org/2000/svg" xmlns:xlink="http://www.w3.org/1999/xlink">
    <!-- Generator: Sketch 43.2 (39069) - http://www.bohemiancoding.com/sketch -->
    <title>YT</title>
    <desc>Created with Sketch.</desc>
    <defs></defs>
    <g id="NSSF---Homepage" stroke="none" stroke-width="1" fill="none" fill-rule="evenodd">
        <g id="NSSF---UI---HP---Desktop" transform="translate(-1360.000000, -4519.000000)" fill="#FFFFFF">
            <g id="Footer" transform="translate(0.000000, 4487.000000)">
                <g id="Social" transform="translate(1203.000000, 32.000000)">
                    <path d="M178.113333,3.45266667 C178.113333,3.45266667 178.326667,5.29333333 178.326667,7.13466667 L178.326667,8.86 C178.326667,10.7013333 178.113333,12.542 178.113333,12.542 C178.113333,12.542 177.905333,14.11 177.266,14.7993333 C176.454667,15.704 175.546,15.71 175.129333,15.7626667 C172.144667,15.992 167.663333,16 167.663333,16 C167.663333,16 162.118,15.946 160.412,15.7713333 C159.937333,15.676 158.872667,15.7033333 158.060667,14.7986667 C157.421333,14.1093333 157.213333,12.5406667 157.213333,12.5406667 C157.213333,12.5406667 157,10.7013333 157,8.85933333 L157,7.134 C157,5.29333333 157.213333,3.45266667 157.213333,3.45266667 C157.213333,3.45266667 157.422,1.884 158.060667,1.19333333 C158.872667,0.288 159.780667,0.282666667 160.197333,0.231333333 C163.181333,-3.28626015e-14 167.658,-3.28626015e-14 167.658,-3.28626015e-14 L167.668,-3.28626015e-14 C167.668,-3.28626015e-14 172.144667,-3.28626015e-14 175.129333,0.231333333 C175.546,0.282666667 176.454667,0.288 177.266,1.19333333 C177.905333,1.884 178.113333,3.45266667 178.113333,3.45266667 Z M165.000067,3.99986667 L165.000067,11.9998667 L171.666733,7.99986667 L165.000067,3.99986667 Z" id="YT"></path>
                </g>
            </g>
        </g>
    </g>
</svg>